<svg viewBox="0 0 330 200" xmlns="http://www.w3.org/2000/svg"><g><g><g><g><g><line x1="41.171875" y1="177" x2="36.171875" y2="177" style="visibility: inherit;" fill="rgb(0, 0, 0)" stroke="rgb(204, 204, 204)" stroke-width="1px"></line><line x1="41.171875" y1="163.3846153846154" x2="36.171875" y2="163.3846153846154" style="visibility: inherit;" fill="rgb(0, 0, 0)" stroke="rgb(204, 204, 204)" stroke-width="1px"></line><line x1="41.171875" y1="149.76923076923077" x2="36.171875" y2="149.76923076923077" style="visibility: inherit;" fill="rgb(0, 0, 0)" stroke="rgb(204, 204, 204)" stroke-width="1px"></line><line x1="41.171875" y1="136.15384615384616" x2="36.171875" y2="136.15384615384616" style="visibility: inherit;" fill="rgb(0, 0, 0)" stroke="rgb(204, 204, 204)" stroke-width="1px"></line><line x1="41.171875" y1="122.53846153846153" x2="36.171875" y2="122.53846153846153" style="visibility: inherit;" fill="rgb(0, 0, 0)" stroke="rgb(204, 204, 204)" stroke-width="1px"></line><line x1="41.171875" y1="108.9230769230769" x2="36.171875" y2="108.9230769230769" style="visibility: inherit;" fill="rgb(0, 0, 0)" stroke="rgb(204, 204, 204)" stroke-width="1px"></line><line x1="41.171875" y1="95.3076923076923" x2="36.171875" y2="95.3076923076923" style="visibility: inherit;" fill="rgb(0, 0, 0)" stroke="rgb(204, 204, 204)" stroke-width="1px"></line><line x1="41.171875" y1="81.69230769230768" x2="36.171875" y2="81.69230769230768" style="visibility: inherit;" fill="rgb(0, 0, 0)" stroke="rgb(204, 204, 204)" stroke-width="1px"></line><line x1="41.171875" y1="68.07692307692307" x2="36.171875" y2="68.07692307692307" style="visibility: inherit;" fill="rgb(0, 0, 0)" stroke="rgb(204, 204, 204)" stroke-width="1px"></line><line x1="41.171875" y1="54.461538461538446" x2="36.171875" y2="54.461538461538446" style="visibility: inherit;" fill="rgb(0, 0, 0)" stroke="rgb(204, 204, 204)" stroke-width="1px"></line><line x1="41.171875" y1="40.84615384615384" x2="36.171875" y2="40.84615384615384" style="visibility: inherit;" fill="rgb(0, 0, 0)" stroke="rgb(204, 204, 204)" stroke-width="1px"></line><line x1="41.171875" y1="27.230769230769194" x2="36.171875" y2="27.230769230769194" style="visibility: inherit;" fill="rgb(0, 0, 0)" stroke="rgb(204, 204, 204)" stroke-width="1px"></line><line x1="41.171875" y1="13.615384615384567" x2="36.171875" y2="13.615384615384567" style="visibility: inherit;" fill="rgb(0, 0, 0)" stroke="rgb(204, 204, 204)" stroke-width="1px"></line><line x1="41.171875" y1="0" x2="36.171875" y2="0" style="visibility: inherit;" fill="rgb(0, 0, 0)" stroke="rgb(204, 204, 204)" stroke-width="1px"></line></g><g transform="translate(31.171875, 0)"><text x="0" y="177" dx="0em" dy="0.3em" style="text-anchor: end; visibility: hidden; font-family: Roboto, sans-serif; font-size: 12px; font-weight: 200;" fill="rgb(255, 255, 255)" stroke="none" stroke-width="1px">0.8</text><text x="0" y="163.3846153846154" dx="0em" dy="0.3em" style="text-anchor: end; visibility: inherit; font-family: Roboto, sans-serif; font-size: 12px; font-weight: 200;" fill="rgb(255, 255, 255)" stroke="none" stroke-width="1px">1</text><text x="0" y="149.76923076923077" dx="0em" dy="0.3em" style="text-anchor: end; visibility: hidden; font-family: Roboto, sans-serif; font-size: 12px; font-weight: 200;" fill="rgb(255, 255, 255)" stroke="none" stroke-width="1px">1.2</text><text x="0" y="136.15384615384616" dx="0em" dy="0.3em" style="text-anchor: end; visibility: inherit; font-family: Roboto, sans-serif; font-size: 12px; font-weight: 200;" fill="rgb(255, 255, 255)" stroke="none" stroke-width="1px">1.4</text><text x="0" y="122.53846153846153" dx="0em" dy="0.3em" style="text-anchor: end; visibility: hidden; font-family: Roboto, sans-serif; font-size: 12px; font-weight: 200;" fill="rgb(255, 255, 255)" stroke="none" stroke-width="1px">1.6</text><text x="0" y="108.9230769230769" dx="0em" dy="0.3em" style="text-anchor: end; visibility: inherit; font-family: Roboto, sans-serif; font-size: 12px; font-weight: 200;" fill="rgb(255, 255, 255)" stroke="none" stroke-width="1px">1.8</text><text x="0" y="95.3076923076923" dx="0em" dy="0.3em" style="text-anchor: end; visibility: hidden; font-family: Roboto, sans-serif; font-size: 12px; font-weight: 200;" fill="rgb(255, 255, 255)" stroke="none" stroke-width="1px">2</text><text x="0" y="81.69230769230768" dx="0em" dy="0.3em" style="text-anchor: end; visibility: inherit; font-family: Roboto, sans-serif; font-size: 12px; font-weight: 200;" fill="rgb(255, 255, 255)" stroke="none" stroke-width="1px">2.2</text><text x="0" y="68.07692307692307" dx="0em" dy="0.3em" style="text-anchor: end; visibility: hidden; font-family: Roboto, sans-serif; font-size: 12px; font-weight: 200;" fill="rgb(255, 255, 255)" stroke="none" stroke-width="1px">2.4</text><text x="0" y="54.461538461538446" dx="0em" dy="0.3em" style="text-anchor: end; visibility: inherit; font-family: Roboto, sans-serif; font-size: 12px; font-weight: 200;" fill="rgb(255, 255, 255)" stroke="none" stroke-width="1px">2.6</text><text x="0" y="40.84615384615384" dx="0em" dy="0.3em" style="text-anchor: end; visibility: hidden; font-family: Roboto, sans-serif; font-size: 12px; font-weight: 200;" fill="rgb(255, 255, 255)" stroke="none" stroke-width="1px">2.8</text><text x="0" y="27.230769230769194" dx="0em" dy="0.3em" style="text-anchor: end; visibility: inherit; font-family: Roboto, sans-serif; font-size: 12px; font-weight: 200;" fill="rgb(255, 255, 255)" stroke="none" stroke-width="1px">3</text><text x="0" y="13.615384615384567" dx="0em" dy="0.3em" style="text-anchor: end; visibility: hidden; font-family: Roboto, sans-serif; font-size: 12px; font-weight: 200;" fill="rgb(255, 255, 255)" stroke="none" stroke-width="1px">3.2</text><text x="0" y="0" dx="0em" dy="0.3em" style="text-anchor: end; visibility: hidden; font-family: Roboto, sans-serif; font-size: 12px; font-weight: 200;" fill="rgb(255, 255, 255)" stroke="none" stroke-width="1px">3.4</text></g><line x1="41.171875" y1="0" x2="41.171875" y2="177" fill="rgb(0, 0, 0)" stroke="rgb(204, 204, 204)" stroke-width="1px"></line></g></g><g transform="translate(41, 0)" clip-path="url(#clip_0)"><clipPath id="clip_0"><rect width="288" height="177"></rect></clipPath><g><g><g><line x1="0" y1="0" x2="0" y2="177" fill="rgb(0, 0, 0)" stroke="rgb(189, 189, 189)" stroke-width="1px" opacity="0.25"></line><line x1="32.092013888888886" y1="0" x2="32.092013888888886" y2="177" fill="rgb(0, 0, 0)" stroke="rgb(189, 189, 189)" stroke-width="1px" opacity="0.25"></line><line x1="64.18402777777777" y1="0" x2="64.18402777777777" y2="177" fill="rgb(0, 0, 0)" stroke="rgb(189, 189, 189)" stroke-width="1px" opacity="0.25"></line><line x1="96.27604166666666" y1="0" x2="96.27604166666666" y2="177" fill="rgb(0, 0, 0)" stroke="rgb(189, 189, 189)" stroke-width="1px" opacity="0.25"></line><line x1="128.36805555555554" y1="0" x2="128.36805555555554" y2="177" fill="rgb(0, 0, 0)" stroke="rgb(189, 189, 189)" stroke-width="1px" opacity="0.25"></line><line x1="160.46006944444446" y1="0" x2="160.46006944444446" y2="177" fill="rgb(0, 0, 0)" stroke="rgb(189, 189, 189)" stroke-width="1px" opacity="0.25"></line><line x1="192.55208333333331" y1="0" x2="192.55208333333331" y2="177" fill="rgb(0, 0, 0)" stroke="rgb(189, 189, 189)" stroke-width="1px" opacity="0.25"></line><line x1="224.64409722222223" y1="0" x2="224.64409722222223" y2="177" fill="rgb(0, 0, 0)" stroke="rgb(189, 189, 189)" stroke-width="1px" opacity="0.25"></line><line x1="256.7361111111111" y1="0" x2="256.7361111111111" y2="177" fill="rgb(0, 0, 0)" stroke="rgb(189, 189, 189)" stroke-width="1px" opacity="0.25"></line><line x1="288.828125" y1="0" x2="288.828125" y2="177" fill="rgb(0, 0, 0)" stroke="rgb(189, 189, 189)" stroke-width="1px" opacity="0.25"></line></g><g><line x1="0" y1="177" x2="288.828125" y2="177" fill="rgb(0, 0, 0)" stroke="rgb(189, 189, 189)" stroke-width="1px" opacity="0.25"></line><line x1="0" y1="163.3846153846154" x2="288.828125" y2="163.3846153846154" fill="rgb(0, 0, 0)" stroke="rgb(189, 189, 189)" stroke-width="1px" opacity="0.25"></line><line x1="0" y1="149.76923076923077" x2="288.828125" y2="149.76923076923077" fill="rgb(0, 0, 0)" stroke="rgb(189, 189, 189)" stroke-width="1px" opacity="0.25"></line><line x1="0" y1="136.15384615384616" x2="288.828125" y2="136.15384615384616" fill="rgb(0, 0, 0)" stroke="rgb(189, 189, 189)" stroke-width="1px" opacity="0.25"></line><line x1="0" y1="122.53846153846153" x2="288.828125" y2="122.53846153846153" fill="rgb(0, 0, 0)" stroke="rgb(189, 189, 189)" stroke-width="1px" opacity="0.25"></line><line x1="0" y1="108.9230769230769" x2="288.828125" y2="108.9230769230769" fill="rgb(0, 0, 0)" stroke="rgb(189, 189, 189)" stroke-width="1px" opacity="0.25"></line><line x1="0" y1="95.3076923076923" x2="288.828125" y2="95.3076923076923" fill="rgb(0, 0, 0)" stroke="rgb(189, 189, 189)" stroke-width="1px" opacity="0.25"></line><line x1="0" y1="81.69230769230768" x2="288.828125" y2="81.69230769230768" fill="rgb(0, 0, 0)" stroke="rgb(189, 189, 189)" stroke-width="1px" opacity="0.25"></line><line x1="0" y1="68.07692307692307" x2="288.828125" y2="68.07692307692307" fill="rgb(0, 0, 0)" stroke="rgb(189, 189, 189)" stroke-width="1px" opacity="0.25"></line><line x1="0" y1="54.461538461538446" x2="288.828125" y2="54.461538461538446" fill="rgb(0, 0, 0)" stroke="rgb(189, 189, 189)" stroke-width="1px" opacity="0.25"></line><line x1="0" y1="40.84615384615384" x2="288.828125" y2="40.84615384615384" fill="rgb(0, 0, 0)" stroke="rgb(189, 189, 189)" stroke-width="1px" opacity="0.25"></line><line x1="0" y1="27.230769230769194" x2="288.828125" y2="27.230769230769194" fill="rgb(0, 0, 0)" stroke="rgb(189, 189, 189)" stroke-width="1px" opacity="0.25"></line><line x1="0" y1="13.615384615384567" x2="288.828125" y2="13.615384615384567" fill="rgb(0, 0, 0)" stroke="rgb(189, 189, 189)" stroke-width="1px" opacity="0.25"></line><line x1="0" y1="0" x2="288.828125" y2="0" fill="rgb(0, 0, 0)" stroke="rgb(189, 189, 189)" stroke-width="1px" opacity="0.25"></line></g></g></g><g><g><line x1="0" y1="231.46153846153845" x2="288.828125" y2="231.46153846153845" fill="rgb(0, 0, 0)" stroke="rgb(153, 153, 153)" stroke-width="1.5px"></line></g></g><g><g><line x1="32.092013888888886" y1="0" x2="32.092013888888886" y2="177" fill="rgb(0, 0, 0)" stroke="rgb(153, 153, 153)" stroke-width="1.5px"></line></g></g><g><g><g><g><g><path stroke="rgb(0, 153, 136)" stroke-width="2px" d="M38.510416666666664,-8.797294315401007L41.71961805555555,6.7923538644389305L44.92881944444444,12.573551281425157L48.13802083333333,27.073140481124454L51.34722222222222,39.75647927780548L54.55642361111111,50.64646981372777L57.765625,55.050186638848494L60.974826388888886,51.60690061650293L64.18402777777777,56.955144032712035L67.39322916666667,62.34188374055162L70.60243055555556,60.49641712530388L73.81163194444444,58.21925588434922L77.02083333333333,45.09742691775363L80.23003472222223,61.05912058807988L83.4392361111111,53.60942160150588L86.6484375,33.76196625540525L89.85763888888889,13.314886606245262L93.06684027777779,30.042294395836667L96.27604166666666,21.234478077476993L99.48524305555556,51.70080100399221L102.69444444444444,75.16880855657713L105.90364583333333,82.89508865338692L109.11284722222221,85.87059917138934L112.32204861111111,92.8444844617929L115.53125,89.7215273573743L118.74045138888889,93.11710164236251L121.94965277777777,102.93399510647863L125.15885416666667,110.98748117750087L128.36805555555554,116.41619336485265L131.57725694444443,122.59375746559297L134.78645833333334,122.23618992493945L137.99565972222223,124.96486869901715L141.20486111111111,106.59270559091546L144.4140625,109.68786643653583L147.62326388888889,118.29335116394545L150.8324652777778,126.8265138152623L154.04166666666666,127.86655551281967L157.25086805555554,129.15101516195492L160.46006944444446,132.79137163240026L163.66927083333334,136.57598166988L166.8784722222222,133.12931089908508L170.08767361111111,138.98502104064627L173.296875,132.86065132717076L176.5060763888889,139.75758990133514L179.71527777777777,140.23707354176062L182.92447916666666,138.2199020153309L186.13368055555557,137.44468201195298L189.34288194444446,139.2347032624794L192.55208333333331,136.7538649576235L195.76128472222223,141.08220269674527L198.97048611111111,143.91218553650327L202.1796875,147.07731974798466L205.38888888888889,148.12599707604176L208.59809027777777,150.11070602329468L211.80729166666666,150.68635797844252L215.01649305555557,149.9899945206352L218.22569444444443,150.981477616887L221.43489583333334,148.2803555315543L224.64409722222223,152.31264058175245L227.85329861111111,149.39098338003026L231.0625,152.452554955985L234.27170138888889,150.67797212755568L237.48090277777777,152.88841674530806L240.69010416666669,151.95487202289283L243.89930555555554,152.98768816089333L247.10850694444443,153.0414941338595L250.31770833333334,154.28279402238886L253.52690972222223,155.53066068749055L256.7361111111111,155.0961746051612" style="fill: none;" fill="none"></path></g><g><path stroke="rgb(238, 51, 119)" stroke-width="2px" d="M35.30121527777778,-14.65125842048574L38.510416666666664,0.31677903859542667L41.71961805555555,12.279988330548708L44.92881944444444,22.890581904005916L48.13802083333333,33.937277025908735L51.34722222222222,43.98881842193823L54.55642361111111,52.10404785933539L57.765625,59.63625195825216L60.974826388888886,65.66348489543051L64.18402777777777,70.85176367971499L67.39322916666667,74.66491635222943L70.60243055555556,77.19500065952813L73.81163194444444,78.4253539358269L77.02083333333333,81.23548641822876L80.23003472222223,81.58430770691433L83.4392361111111,82.35699106013152L86.6484375,82.8965891205804L89.85763888888889,83.6128300848005L93.06684027777779,83.56367507860429L96.27604166666666,84.01361920945132L99.48524305555556,87.69810488953401L102.69444444444444,93.16146339974176L105.90364583333333,98.23341437053328L109.11284722222221,102.50346921769078L112.32204861111111,106.01876027401049L115.53125,107.1096711078121L118.74045138888889,108.92262951119936L121.94965277777777,112.07564447128465L125.15885416666667,115.45058488054694L128.36805555555554,119.92603669735375L131.57725694444443,122.96025347477071L134.78645833333334,125.5714312979384L137.99565972222223,128.48351247976305L141.20486111111111,130.10773813688257L144.4140625,131.21487593120418L147.62326388888889,132.46183145683088L150.8324652777778,134.8348412731758L154.04166666666666,137.5825223674603L157.25086805555554,140.16136704914766L160.46006944444446,142.10330636080687L163.66927083333334,143.91275168290267L166.8784722222222,145.54876321454557L170.08767361111111,146.8366778525861L173.296875,148.36648973073252L176.5060763888889,149.69886612680105L179.71527777777777,151.20922387074893L182.92447916666666,151.62853389594625L186.13368055555557,153.5317924210813L189.34288194444446,154.92249433473657L192.55208333333331,155.4090179533188L195.76128472222223,156.69995105035645L198.97048611111111,157.70796504432508L202.1796875,159.10644998210776L205.38888888888889,160.41654262485744L208.59809027777777,161.0644805670036L211.80729166666666,162.6328234522314L215.01649305555557,162.86326733934894L218.22569444444443,164.87882246246912L221.43489583333334,164.58907205403892L224.64409722222223,165.45774902611223L227.85329861111111,166.21066777991342L231.0625,167.24266862600226L234.27170138888889,167.3693324237967L237.48090277777777,167.38272362502153L240.69010416666669,167.87285215679157L243.89930555555554,168.7483280105332L247.10850694444443,169.39379775174862L250.31770833333334,169.54840940852773L253.52690972222223,170.14393040311225L256.7361111111111,170.33069458834692" style="fill: none;" fill="none"></path></g></g></g></g><g opacity="0.2"><g><g><g><path stroke="rgb(0, 153, 136)" stroke-width="2px" d="M38.510416666666664,-4.200716917331436L41.71961805555555,25.12578012393069L44.92881944444444,20.121482629042383L48.13802083333333,47.1312921964205L51.34722222222222,57.893856690480135L54.55642361111111,66.52418055901158L57.765625,61.54481357794541L60.974826388888886,46.49402216764596L64.18402777777777,64.92900098287141L67.39322916666667,70.39267890269937L70.60243055555556,57.73424297112684L73.81163194444444,54.807975218846224L77.02083333333333,25.43010768523579L80.23003472222223,84.99040367053105L83.4392361111111,42.43802558458768L86.6484375,3.9958225030165075L89.85763888888889,-17.352617960709814L93.06684027777779,55.13187712889451L96.27604166666666,8.02323664151702L99.48524305555556,97.39928288643175L102.69444444444444,110.37035655058347L105.90364583333333,94.48441727344805L109.11284722222221,90.33384379973778L112.32204861111111,103.30528265696304L115.53125,85.0370996915377L118.74045138888889,98.21045785683853L121.94965277777777,117.65932625990646L125.15885416666667,123.0677058329949L128.36805555555554,124.55925984566026L131.57725694444443,131.860102387575L134.78645833333334,121.69983865664555L137.99565972222223,129.057886664684L141.20486111111111,79.03446171833917L144.4140625,114.33060762515434L147.62326388888889,131.20157812191889L150.8324652777778,139.62625771302444L154.04166666666666,129.42661805336292L157.25086805555554,131.07770463136526L160.46006944444446,138.2519063307689L163.66927083333334,142.25289672154648L166.8784722222222,127.9593047453807L170.08767361111111,147.7685862504519L173.296875,123.67409675854904L176.5060763888889,150.10299776150632L179.71527777777777,140.95629900235397L182.92447916666666,135.19414472579956L186.13368055555557,136.28185200691223L189.34288194444446,141.91973513823288L192.55208333333331,133.03260750036972L195.76128472222223,147.57470930539642L198.97048611111111,148.1571597961279L202.1796875,151.82502106519846L205.38888888888889,149.6990130681258L208.59809027777777,153.0877694441722L211.80729166666666,151.5498359111639L215.01649305555557,148.94544933392453L218.22569444444443,152.4687022612645L221.43489583333334,144.22867240355563L224.64409722222223,158.36106815704932L227.85329861111111,145.00849757744717L231.0625,157.04491231991696L234.27170138888889,148.01609788491177L237.48090277777777,156.20408367193662L240.69010416666669,150.55455493927002L243.89930555555554,154.5369123678941L247.10850694444443,153.12220309330868L250.31770833333334,156.14474385518295L253.52690972222223,157.4024606851431L256.7361111111111,154.44444548166717" style="fill: none;" fill="none"></path></g><g><path stroke="rgb(238, 51, 119)" stroke-width="2px" d="M35.30121527777778,-4.435803871888405L38.510416666666664,14.686094999313315L41.71961805555555,26.348722457885703L44.92881944444444,36.74377287351165L48.13802083333333,49.2188331897442L51.34722222222222,58.36268344292272L54.55642361111111,63.93613028526304L57.765625,70.74478994883023L60.974826388888886,74.61322336930493L64.18402777777777,78.58712454942555L67.39322916666667,80.3638943525461L70.60243055555556,80.98186595623308L73.81163194444444,80.26847346012407L77.02083333333333,85.44738193658681L80.23003472222223,82.10729362414433L83.4392361111111,83.51568911625787L86.6484375,83.7058492073646L89.85763888888889,84.68708241902864L93.06684027777779,83.48994706227228L96.27604166666666,84.68851072971636L99.48524305555556,93.22471217008737L102.69444444444444,101.35639330056996L105.90364583333333,105.84128074462595L109.11284722222221,108.90852113870473L112.32204861111111,111.2916818673794L115.53125,108.7460345671727L118.74045138888889,111.64206433296204L121.94965277777777,116.80516400704018L125.15885416666667,120.51299362916214L128.36805555555554,126.63921293845543L131.57725694444443,127.51157803718858L134.78645833333334,129.4881977209678L137.99565972222223,132.8516340439136L141.20486111111111,132.54407655275784L144.4140625,132.8755825941379L147.62326388888889,134.33226472597855L150.8324652777778,138.39435597566458L154.04166666666666,141.70404399358307L157.25086805555554,144.02963406306046L160.46006944444446,145.01621532440186L163.66927083333334,146.62691966386942L166.8784722222222,148.00278051082904L170.08767361111111,148.76854980908905L173.296875,150.6612075475546L176.5060763888889,151.69743072069608L179.71527777777777,153.47476048652942L182.92447916666666,152.25749893371875L186.13368055555557,156.3866802087197L189.34288194444446,157.00854720519138L192.55208333333331,156.13880338118625L195.76128472222223,158.63635069590347L198.97048611111111,159.21998603527362L202.1796875,161.2041773887781L205.38888888888889,162.38168158897986L208.59809027777777,162.03638748022226L211.80729166666666,164.98533778007214L215.01649305555557,163.20893317002518L218.22569444444443,167.90215514714902L221.43489583333334,164.15444644139362L224.64409722222223,166.7607644842221L227.85329861111111,167.3400459106152L231.0625,168.79066989513544L234.27170138888889,167.5593281204884L237.48090277777777,167.40281042685876L240.69010416666669,168.60804495444665L243.89930555555554,170.06154179114563L247.10850694444443,170.36200236357178L250.31770833333334,169.78032689369644L253.52690972222223,171.037211894989L256.7361111111111,170.6108408661989" style="fill: none;" fill="none"></path></g></g></g></g></g></g><g transform="translate(41, 177)" clip-path="url(#clip_1)"><clipPath id="clip_1"><rect width="288" height="23"></rect></clipPath><g><g><line x1="0" y1="0" x2="0" y2="5" style="visibility: inherit;" fill="rgb(0, 0, 0)" stroke="rgb(204, 204, 204)" stroke-width="1px"></line><line x1="32.092013888888886" y1="0" x2="32.092013888888886" y2="5" style="visibility: inherit;" fill="rgb(0, 0, 0)" stroke="rgb(204, 204, 204)" stroke-width="1px"></line><line x1="64.18402777777777" y1="0" x2="64.18402777777777" y2="5" style="visibility: inherit;" fill="rgb(0, 0, 0)" stroke="rgb(204, 204, 204)" stroke-width="1px"></line><line x1="96.27604166666666" y1="0" x2="96.27604166666666" y2="5" style="visibility: inherit;" fill="rgb(0, 0, 0)" stroke="rgb(204, 204, 204)" stroke-width="1px"></line><line x1="128.36805555555554" y1="0" x2="128.36805555555554" y2="5" style="visibility: inherit;" fill="rgb(0, 0, 0)" stroke="rgb(204, 204, 204)" stroke-width="1px"></line><line x1="160.46006944444446" y1="0" x2="160.46006944444446" y2="5" style="visibility: inherit;" fill="rgb(0, 0, 0)" stroke="rgb(204, 204, 204)" stroke-width="1px"></line><line x1="192.55208333333331" y1="0" x2="192.55208333333331" y2="5" style="visibility: inherit;" fill="rgb(0, 0, 0)" stroke="rgb(204, 204, 204)" stroke-width="1px"></line><line x1="224.64409722222223" y1="0" x2="224.64409722222223" y2="5" style="visibility: inherit;" fill="rgb(0, 0, 0)" stroke="rgb(204, 204, 204)" stroke-width="1px"></line><line x1="256.7361111111111" y1="0" x2="256.7361111111111" y2="5" style="visibility: inherit;" fill="rgb(0, 0, 0)" stroke="rgb(204, 204, 204)" stroke-width="1px"></line><line x1="288.828125" y1="0" x2="288.828125" y2="5" style="visibility: inherit;" fill="rgb(0, 0, 0)" stroke="rgb(204, 204, 204)" stroke-width="1px"></line></g><g transform="translate(0, 8)"><text x="0" y="0" dx="0em" dy="0.95em" style="text-anchor: middle; visibility: hidden; font-family: Roboto, sans-serif; font-size: 12px; font-weight: 200;" fill="rgb(255, 255, 255)" stroke="none" stroke-width="1px">-10</text><text x="32.092013888888886" y="0" dx="0em" dy="0.95em" style="text-anchor: middle; visibility: inherit; font-family: Roboto, sans-serif; font-size: 12px; font-weight: 200;" fill="rgb(255, 255, 255)" stroke="none" stroke-width="1px">0</text><text x="64.18402777777777" y="0" dx="0em" dy="0.95em" style="text-anchor: middle; visibility: inherit; font-family: Roboto, sans-serif; font-size: 12px; font-weight: 200;" fill="rgb(255, 255, 255)" stroke="none" stroke-width="1px">10</text><text x="96.27604166666666" y="0" dx="0em" dy="0.95em" style="text-anchor: middle; visibility: inherit; font-family: Roboto, sans-serif; font-size: 12px; font-weight: 200;" fill="rgb(255, 255, 255)" stroke="none" stroke-width="1px">20</text><text x="128.36805555555554" y="0" dx="0em" dy="0.95em" style="text-anchor: middle; visibility: inherit; font-family: Roboto, sans-serif; font-size: 12px; font-weight: 200;" fill="rgb(255, 255, 255)" stroke="none" stroke-width="1px">30</text><text x="160.46006944444446" y="0" dx="0em" dy="0.95em" style="text-anchor: middle; visibility: inherit; font-family: Roboto, sans-serif; font-size: 12px; font-weight: 200;" fill="rgb(255, 255, 255)" stroke="none" stroke-width="1px">40</text><text x="192.55208333333331" y="0" dx="0em" dy="0.95em" style="text-anchor: middle; visibility: inherit; font-family: Roboto, sans-serif; font-size: 12px; font-weight: 200;" fill="rgb(255, 255, 255)" stroke="none" stroke-width="1px">50</text><text x="224.64409722222223" y="0" dx="0em" dy="0.95em" style="text-anchor: middle; visibility: inherit; font-family: Roboto, sans-serif; font-size: 12px; font-weight: 200;" fill="rgb(255, 255, 255)" stroke="none" stroke-width="1px">60</text><text x="256.7361111111111" y="0" dx="0em" dy="0.95em" style="text-anchor: middle; visibility: inherit; font-family: Roboto, sans-serif; font-size: 12px; font-weight: 200;" fill="rgb(255, 255, 255)" stroke="none" stroke-width="1px">70</text><text x="288.828125" y="0" dx="0em" dy="0.95em" style="text-anchor: middle; visibility: hidden; font-family: Roboto, sans-serif; font-size: 12px; font-weight: 200;" fill="rgb(255, 255, 255)" stroke="none" stroke-width="1px">80</text></g><line x1="0" y1="0" x2="288.828125" y2="0" fill="rgb(0, 0, 0)" stroke="rgb(204, 204, 204)" stroke-width="1px"></line></g></g></g></g></svg>