<svg viewBox="0 0 330 200" xmlns="http://www.w3.org/2000/svg"><g><g><g><g><g><line x1="70" y1="177" x2="65" y2="177" style="visibility: inherit;" fill="rgb(0, 0, 0)" stroke="rgb(204, 204, 204)" stroke-width="1px"></line><line x1="70" y1="162.25" x2="65" y2="162.25" style="visibility: inherit;" fill="rgb(0, 0, 0)" stroke="rgb(204, 204, 204)" stroke-width="1px"></line><line x1="70" y1="147.5" x2="65" y2="147.5" style="visibility: inherit;" fill="rgb(0, 0, 0)" stroke="rgb(204, 204, 204)" stroke-width="1px"></line><line x1="70" y1="132.75" x2="65" y2="132.75" style="visibility: inherit;" fill="rgb(0, 0, 0)" stroke="rgb(204, 204, 204)" stroke-width="1px"></line><line x1="70" y1="118.00000000000001" x2="65" y2="118.00000000000001" style="visibility: inherit;" fill="rgb(0, 0, 0)" stroke="rgb(204, 204, 204)" stroke-width="1px"></line><line x1="70" y1="103.25" x2="65" y2="103.25" style="visibility: inherit;" fill="rgb(0, 0, 0)" stroke="rgb(204, 204, 204)" stroke-width="1px"></line><line x1="70" y1="88.5" x2="65" y2="88.5" style="visibility: inherit;" fill="rgb(0, 0, 0)" stroke="rgb(204, 204, 204)" stroke-width="1px"></line><line x1="70" y1="73.75000000000001" x2="65" y2="73.75000000000001" style="visibility: inherit;" fill="rgb(0, 0, 0)" stroke="rgb(204, 204, 204)" stroke-width="1px"></line><line x1="70" y1="59.00000000000001" x2="65" y2="59.00000000000001" style="visibility: inherit;" fill="rgb(0, 0, 0)" stroke="rgb(204, 204, 204)" stroke-width="1px"></line><line x1="70" y1="44.25" x2="65" y2="44.25" style="visibility: inherit;" fill="rgb(0, 0, 0)" stroke="rgb(204, 204, 204)" stroke-width="1px"></line><line x1="70" y1="29.500000000000014" x2="65" y2="29.500000000000014" style="visibility: inherit;" fill="rgb(0, 0, 0)" stroke="rgb(204, 204, 204)" stroke-width="1px"></line><line x1="70" y1="14.750000000000007" x2="65" y2="14.750000000000007" style="visibility: inherit;" fill="rgb(0, 0, 0)" stroke="rgb(204, 204, 204)" stroke-width="1px"></line><line x1="70" y1="0" x2="65" y2="0" style="visibility: inherit;" fill="rgb(0, 0, 0)" stroke="rgb(204, 204, 204)" stroke-width="1px"></line></g><g transform="translate(60, 0)"><text x="0" y="177" dx="0em" dy="0.3em" style="text-anchor: end; visibility: hidden; font-family: Roboto, sans-serif; font-size: 12px; font-weight: 200;" fill="rgb(255, 255, 255)" stroke="none" stroke-width="1px">-1e-4</text><text x="0" y="162.25" dx="0em" dy="0.3em" style="text-anchor: end; visibility: inherit; font-family: Roboto, sans-serif; font-size: 12px; font-weight: 200;" fill="rgb(255, 255, 255)" stroke="none" stroke-width="1px">0</text><text x="0" y="147.5" dx="0em" dy="0.3em" style="text-anchor: end; visibility: hidden; font-family: Roboto, sans-serif; font-size: 12px; font-weight: 200;" fill="rgb(255, 255, 255)" stroke="none" stroke-width="1px">1e-4</text><text x="0" y="132.75" dx="0em" dy="0.3em" style="text-anchor: end; visibility: inherit; font-family: Roboto, sans-serif; font-size: 12px; font-weight: 200;" fill="rgb(255, 255, 255)" stroke="none" stroke-width="1px">2e-4</text><text x="0" y="118.00000000000001" dx="0em" dy="0.3em" style="text-anchor: end; visibility: hidden; font-family: Roboto, sans-serif; font-size: 12px; font-weight: 200;" fill="rgb(255, 255, 255)" stroke="none" stroke-width="1px">3e-4</text><text x="0" y="103.25" dx="0em" dy="0.3em" style="text-anchor: end; visibility: inherit; font-family: Roboto, sans-serif; font-size: 12px; font-weight: 200;" fill="rgb(255, 255, 255)" stroke="none" stroke-width="1px">4e-4</text><text x="0" y="88.5" dx="0em" dy="0.3em" style="text-anchor: end; visibility: hidden; font-family: Roboto, sans-serif; font-size: 12px; font-weight: 200;" fill="rgb(255, 255, 255)" stroke="none" stroke-width="1px">5e-4</text><text x="0" y="73.75000000000001" dx="0em" dy="0.3em" style="text-anchor: end; visibility: inherit; font-family: Roboto, sans-serif; font-size: 12px; font-weight: 200;" fill="rgb(255, 255, 255)" stroke="none" stroke-width="1px">6e-4</text><text x="0" y="59.00000000000001" dx="0em" dy="0.3em" style="text-anchor: end; visibility: hidden; font-family: Roboto, sans-serif; font-size: 12px; font-weight: 200;" fill="rgb(255, 255, 255)" stroke="none" stroke-width="1px">7e-4</text><text x="0" y="44.25" dx="0em" dy="0.3em" style="text-anchor: end; visibility: inherit; font-family: Roboto, sans-serif; font-size: 12px; font-weight: 200;" fill="rgb(255, 255, 255)" stroke="none" stroke-width="1px">8e-4</text><text x="0" y="29.500000000000014" dx="0em" dy="0.3em" style="text-anchor: end; visibility: hidden; font-family: Roboto, sans-serif; font-size: 12px; font-weight: 200;" fill="rgb(255, 255, 255)" stroke="none" stroke-width="1px">9e-4</text><text x="0" y="14.750000000000007" dx="0em" dy="0.3em" style="text-anchor: end; visibility: inherit; font-family: Roboto, sans-serif; font-size: 12px; font-weight: 200;" fill="rgb(255, 255, 255)" stroke="none" stroke-width="1px">1e-3</text><text x="0" y="0" dx="0em" dy="0.3em" style="text-anchor: end; visibility: hidden; font-family: Roboto, sans-serif; font-size: 12px; font-weight: 200;" fill="rgb(255, 255, 255)" stroke="none" stroke-width="1px">1.1e-3</text></g><line x1="70" y1="0" x2="70" y2="177" fill="rgb(0, 0, 0)" stroke="rgb(204, 204, 204)" stroke-width="1px"></line></g></g><g transform="translate(70, 0)" clip-path="url(#clip_0)"><clipPath id="clip_0"><rect width="260" height="177"></rect></clipPath><g><g><g><line x1="0" y1="0" x2="0" y2="177" fill="rgb(0, 0, 0)" stroke="rgb(189, 189, 189)" stroke-width="1px" opacity="0.25"></line><line x1="32.5" y1="0" x2="32.5" y2="177" fill="rgb(0, 0, 0)" stroke="rgb(189, 189, 189)" stroke-width="1px" opacity="0.25"></line><line x1="65" y1="0" x2="65" y2="177" fill="rgb(0, 0, 0)" stroke="rgb(189, 189, 189)" stroke-width="1px" opacity="0.25"></line><line x1="97.5" y1="0" x2="97.5" y2="177" fill="rgb(0, 0, 0)" stroke="rgb(189, 189, 189)" stroke-width="1px" opacity="0.25"></line><line x1="130" y1="0" x2="130" y2="177" fill="rgb(0, 0, 0)" stroke="rgb(189, 189, 189)" stroke-width="1px" opacity="0.25"></line><line x1="162.5" y1="0" x2="162.5" y2="177" fill="rgb(0, 0, 0)" stroke="rgb(189, 189, 189)" stroke-width="1px" opacity="0.25"></line><line x1="195" y1="0" x2="195" y2="177" fill="rgb(0, 0, 0)" stroke="rgb(189, 189, 189)" stroke-width="1px" opacity="0.25"></line><line x1="227.5" y1="0" x2="227.5" y2="177" fill="rgb(0, 0, 0)" stroke="rgb(189, 189, 189)" stroke-width="1px" opacity="0.25"></line><line x1="260" y1="0" x2="260" y2="177" fill="rgb(0, 0, 0)" stroke="rgb(189, 189, 189)" stroke-width="1px" opacity="0.25"></line></g><g><line x1="0" y1="177" x2="260" y2="177" fill="rgb(0, 0, 0)" stroke="rgb(189, 189, 189)" stroke-width="1px" opacity="0.25"></line><line x1="0" y1="162.25" x2="260" y2="162.25" fill="rgb(0, 0, 0)" stroke="rgb(189, 189, 189)" stroke-width="1px" opacity="0.25"></line><line x1="0" y1="147.5" x2="260" y2="147.5" fill="rgb(0, 0, 0)" stroke="rgb(189, 189, 189)" stroke-width="1px" opacity="0.25"></line><line x1="0" y1="132.75" x2="260" y2="132.75" fill="rgb(0, 0, 0)" stroke="rgb(189, 189, 189)" stroke-width="1px" opacity="0.25"></line><line x1="0" y1="118.00000000000001" x2="260" y2="118.00000000000001" fill="rgb(0, 0, 0)" stroke="rgb(189, 189, 189)" stroke-width="1px" opacity="0.25"></line><line x1="0" y1="103.25" x2="260" y2="103.25" fill="rgb(0, 0, 0)" stroke="rgb(189, 189, 189)" stroke-width="1px" opacity="0.25"></line><line x1="0" y1="88.5" x2="260" y2="88.5" fill="rgb(0, 0, 0)" stroke="rgb(189, 189, 189)" stroke-width="1px" opacity="0.25"></line><line x1="0" y1="73.75000000000001" x2="260" y2="73.75000000000001" fill="rgb(0, 0, 0)" stroke="rgb(189, 189, 189)" stroke-width="1px" opacity="0.25"></line><line x1="0" y1="59.00000000000001" x2="260" y2="59.00000000000001" fill="rgb(0, 0, 0)" stroke="rgb(189, 189, 189)" stroke-width="1px" opacity="0.25"></line><line x1="0" y1="44.25" x2="260" y2="44.25" fill="rgb(0, 0, 0)" stroke="rgb(189, 189, 189)" stroke-width="1px" opacity="0.25"></line><line x1="0" y1="29.500000000000014" x2="260" y2="29.500000000000014" fill="rgb(0, 0, 0)" stroke="rgb(189, 189, 189)" stroke-width="1px" opacity="0.25"></line><line x1="0" y1="14.750000000000007" x2="260" y2="14.750000000000007" fill="rgb(0, 0, 0)" stroke="rgb(189, 189, 189)" stroke-width="1px" opacity="0.25"></line><line x1="0" y1="0" x2="260" y2="0" fill="rgb(0, 0, 0)" stroke="rgb(189, 189, 189)" stroke-width="1px" opacity="0.25"></line></g></g></g><g><g><line x1="0" y1="162.25" x2="260" y2="162.25" fill="rgb(0, 0, 0)" stroke="rgb(153, 153, 153)" stroke-width="1.5px"></line></g></g><g><g><line x1="32.5" y1="0" x2="32.5" y2="177" fill="rgb(0, 0, 0)" stroke="rgb(153, 153, 153)" stroke-width="1.5px"></line></g></g><g><g><g><g><g><path stroke="rgb(238, 51, 119)" stroke-width="2px" d="M32.5,14.74999299412594L35.75,14.74999299412594L39,14.74999299412594L42.25,14.749992994125979L45.5,14.749992994125979L48.75,14.74999299412594L52,14.74999299412594L55.25,14.74999299412594L58.5,14.74999299412594L61.75,14.74999299412594L65,14.74999299412594L68.25,14.7499929941259L71.5,14.7499929941259L74.75,14.74999299412594L78,14.74999299412594L81.25,14.7499929941259L84.5,14.7499929941259L87.75,14.74999299412594L91,14.749992994125979L94.25,14.74999299412594L97.5,14.74999299412594L100.75,44.250382684456234L104,61.95036799163239L107.25,72.57026971494876L110.5,78.94217854331477L113.75,82.76531224638163L117,85.05918829441421L120.25,86.43551242066641L123.5,102.01131249081773L126.75,111.35678885994433L130,116.96407335915383L133.25,120.32844358266372L136.5,122.34706554540399L139.75,123.55823866135653L143,124.28494250871908L146.25,124.72096480914136L149.5,124.98257818651646L152.75,132.5145465895838L156,137.03372761352495L159.25,139.74523622144585L162.5,141.3721413838787L165.75,142.34828448050325L169,142.93397033817735L172.25,143.2853818526736L175.5,143.49622876133236L178.75,143.6227369065136L182,143.6986417936173L185.25,143.7441847258777L188.5,143.7715104852333L191.75,143.7879059408464L195,143.7977432142142L198.25,147.49114575339243L201.5,149.70718727689245L204.75,151.03681219099002L208,151.83458713944768L211.25,152.3132521085219L214.5,152.60045108996638L217.75,152.772770478833L221,152.87616211215294L224.25,152.93819709214492L227.5,152.97541808014012L230.75,152.9977506729372L234,153.01115022861546L237.25,153.01918996202244L240.5,153.0240138020666L243.75,153.02690810609312L247,154.87239477608244L250.25,155.97968677807603" style="fill: none;" fill="none"></path></g></g></g></g><g opacity="0.2"><g><g><g><path stroke="rgb(238, 51, 119)" stroke-width="2px" d="M32.5,14.74999299412594L35.75,14.74999299412594L39,14.74999299412594L42.25,14.74999299412594L45.5,14.74999299412594L48.75,14.74999299412594L52,14.74999299412594L55.25,14.74999299412594L58.5,14.74999299412594L61.75,14.74999299412594L65,14.74999299412594L68.25,14.74999299412594L71.5,14.74999299412594L74.75,14.74999299412594L78,14.74999299412594L81.25,14.74999299412594L84.5,14.74999299412594L87.75,14.74999299412594L91,14.74999299412594L94.25,14.74999299412594L97.5,14.74999299412594L100.75,88.49999649706297L104,88.49999649706297L107.25,88.49999649706297L110.5,88.49999649706297L113.75,88.49999649706297L117,88.49999649706297L120.25,88.49999649706297L123.5,125.37499824853148L126.75,125.37499824853148L130,125.37499824853148L133.25,125.37499824853148L136.5,125.37499824853148L139.75,125.37499824853148L143,125.37499824853148L146.25,125.37499824853148L149.5,125.37499824853148L152.75,143.81249912426574L156,143.81249912426574L159.25,143.81249912426574L162.5,143.81249912426574L165.75,143.81249912426574L169,143.81249912426574L172.25,143.81249912426574L175.5,143.81249912426574L178.75,143.81249912426574L182,143.81249912426574L185.25,143.81249912426574L188.5,143.81249912426574L191.75,143.81249912426574L195,143.81249912426574L198.25,153.03124956213287L201.5,153.03124956213287L204.75,153.03124956213287L208,153.03124956213287L211.25,153.03124956213287L214.5,153.03124956213287L217.75,153.03124956213287L221,153.03124956213287L224.25,153.03124956213287L227.5,153.03124956213287L230.75,153.03124956213287L234,153.03124956213287L237.25,153.03124956213287L240.5,153.03124956213287L243.75,153.03124956213287L247,157.64062478106644L250.25,157.64062478106644" style="fill: none;" fill="none"></path></g></g></g></g></g></g><g transform="translate(70, 177)" clip-path="url(#clip_1)"><clipPath id="clip_1"><rect width="260" height="23"></rect></clipPath><g><g><line x1="0" y1="0" x2="0" y2="5" style="visibility: inherit;" fill="rgb(0, 0, 0)" stroke="rgb(204, 204, 204)" stroke-width="1px"></line><line x1="32.5" y1="0" x2="32.5" y2="5" style="visibility: inherit;" fill="rgb(0, 0, 0)" stroke="rgb(204, 204, 204)" stroke-width="1px"></line><line x1="65" y1="0" x2="65" y2="5" style="visibility: inherit;" fill="rgb(0, 0, 0)" stroke="rgb(204, 204, 204)" stroke-width="1px"></line><line x1="97.5" y1="0" x2="97.5" y2="5" style="visibility: inherit;" fill="rgb(0, 0, 0)" stroke="rgb(204, 204, 204)" stroke-width="1px"></line><line x1="130" y1="0" x2="130" y2="5" style="visibility: inherit;" fill="rgb(0, 0, 0)" stroke="rgb(204, 204, 204)" stroke-width="1px"></line><line x1="162.5" y1="0" x2="162.5" y2="5" style="visibility: inherit;" fill="rgb(0, 0, 0)" stroke="rgb(204, 204, 204)" stroke-width="1px"></line><line x1="195" y1="0" x2="195" y2="5" style="visibility: inherit;" fill="rgb(0, 0, 0)" stroke="rgb(204, 204, 204)" stroke-width="1px"></line><line x1="227.5" y1="0" x2="227.5" y2="5" style="visibility: inherit;" fill="rgb(0, 0, 0)" stroke="rgb(204, 204, 204)" stroke-width="1px"></line><line x1="260" y1="0" x2="260" y2="5" style="visibility: inherit;" fill="rgb(0, 0, 0)" stroke="rgb(204, 204, 204)" stroke-width="1px"></line></g><g transform="translate(0, 8)"><text x="0" y="0" dx="0em" dy="0.95em" style="text-anchor: middle; visibility: hidden; font-family: Roboto, sans-serif; font-size: 12px; font-weight: 200;" fill="rgb(255, 255, 255)" stroke="none" stroke-width="1px">-10</text><text x="32.5" y="0" dx="0em" dy="0.95em" style="text-anchor: middle; visibility: inherit; font-family: Roboto, sans-serif; font-size: 12px; font-weight: 200;" fill="rgb(255, 255, 255)" stroke="none" stroke-width="1px">0</text><text x="65" y="0" dx="0em" dy="0.95em" style="text-anchor: middle; visibility: inherit; font-family: Roboto, sans-serif; font-size: 12px; font-weight: 200;" fill="rgb(255, 255, 255)" stroke="none" stroke-width="1px">10</text><text x="97.5" y="0" dx="0em" dy="0.95em" style="text-anchor: middle; visibility: inherit; font-family: Roboto, sans-serif; font-size: 12px; font-weight: 200;" fill="rgb(255, 255, 255)" stroke="none" stroke-width="1px">20</text><text x="130" y="0" dx="0em" dy="0.95em" style="text-anchor: middle; visibility: inherit; font-family: Roboto, sans-serif; font-size: 12px; font-weight: 200;" fill="rgb(255, 255, 255)" stroke="none" stroke-width="1px">30</text><text x="162.5" y="0" dx="0em" dy="0.95em" style="text-anchor: middle; visibility: inherit; font-family: Roboto, sans-serif; font-size: 12px; font-weight: 200;" fill="rgb(255, 255, 255)" stroke="none" stroke-width="1px">40</text><text x="195" y="0" dx="0em" dy="0.95em" style="text-anchor: middle; visibility: inherit; font-family: Roboto, sans-serif; font-size: 12px; font-weight: 200;" fill="rgb(255, 255, 255)" stroke="none" stroke-width="1px">50</text><text x="227.5" y="0" dx="0em" dy="0.95em" style="text-anchor: middle; visibility: inherit; font-family: Roboto, sans-serif; font-size: 12px; font-weight: 200;" fill="rgb(255, 255, 255)" stroke="none" stroke-width="1px">60</text><text x="260" y="0" dx="0em" dy="0.95em" style="text-anchor: middle; visibility: hidden; font-family: Roboto, sans-serif; font-size: 12px; font-weight: 200;" fill="rgb(255, 255, 255)" stroke="none" stroke-width="1px">70</text></g><line x1="0" y1="0" x2="260" y2="0" fill="rgb(0, 0, 0)" stroke="rgb(204, 204, 204)" stroke-width="1px"></line></g></g></g></g></svg>