<svg viewBox="0 0 330 200" xmlns="http://www.w3.org/2000/svg"><g><g><g><g><g><line x1="51.5625" y1="177" x2="46.5625" y2="177" style="visibility: inherit;" fill="rgb(0, 0, 0)" stroke="rgb(204, 204, 204)" stroke-width="1px"></line><line x1="51.5625" y1="165.2" x2="46.5625" y2="165.2" style="visibility: inherit;" fill="rgb(0, 0, 0)" stroke="rgb(204, 204, 204)" stroke-width="1px"></line><line x1="51.5625" y1="153.39999999999998" x2="46.5625" y2="153.39999999999998" style="visibility: inherit;" fill="rgb(0, 0, 0)" stroke="rgb(204, 204, 204)" stroke-width="1px"></line><line x1="51.5625" y1="141.59999999999997" x2="46.5625" y2="141.59999999999997" style="visibility: inherit;" fill="rgb(0, 0, 0)" stroke="rgb(204, 204, 204)" stroke-width="1px"></line><line x1="51.5625" y1="129.79999999999998" x2="46.5625" y2="129.79999999999998" style="visibility: inherit;" fill="rgb(0, 0, 0)" stroke="rgb(204, 204, 204)" stroke-width="1px"></line><line x1="51.5625" y1="118.00000000000001" x2="46.5625" y2="118.00000000000001" style="visibility: inherit;" fill="rgb(0, 0, 0)" stroke="rgb(204, 204, 204)" stroke-width="1px"></line><line x1="51.5625" y1="106.20000000000002" x2="46.5625" y2="106.20000000000002" style="visibility: inherit;" fill="rgb(0, 0, 0)" stroke="rgb(204, 204, 204)" stroke-width="1px"></line><line x1="51.5625" y1="94.40000000000002" x2="46.5625" y2="94.40000000000002" style="visibility: inherit;" fill="rgb(0, 0, 0)" stroke="rgb(204, 204, 204)" stroke-width="1px"></line><line x1="51.5625" y1="82.6" x2="46.5625" y2="82.6" style="visibility: inherit;" fill="rgb(0, 0, 0)" stroke="rgb(204, 204, 204)" stroke-width="1px"></line><line x1="51.5625" y1="70.79999999999998" x2="46.5625" y2="70.79999999999998" style="visibility: inherit;" fill="rgb(0, 0, 0)" stroke="rgb(204, 204, 204)" stroke-width="1px"></line><line x1="51.5625" y1="58.999999999999986" x2="46.5625" y2="58.999999999999986" style="visibility: inherit;" fill="rgb(0, 0, 0)" stroke="rgb(204, 204, 204)" stroke-width="1px"></line><line x1="51.5625" y1="47.20000000000003" x2="46.5625" y2="47.20000000000003" style="visibility: inherit;" fill="rgb(0, 0, 0)" stroke="rgb(204, 204, 204)" stroke-width="1px"></line><line x1="51.5625" y1="35.400000000000034" x2="46.5625" y2="35.400000000000034" style="visibility: inherit;" fill="rgb(0, 0, 0)" stroke="rgb(204, 204, 204)" stroke-width="1px"></line><line x1="51.5625" y1="23.600000000000016" x2="46.5625" y2="23.600000000000016" style="visibility: inherit;" fill="rgb(0, 0, 0)" stroke="rgb(204, 204, 204)" stroke-width="1px"></line><line x1="51.5625" y1="11.800000000000017" x2="46.5625" y2="11.800000000000017" style="visibility: inherit;" fill="rgb(0, 0, 0)" stroke="rgb(204, 204, 204)" stroke-width="1px"></line><line x1="51.5625" y1="0" x2="46.5625" y2="0" style="visibility: inherit;" fill="rgb(0, 0, 0)" stroke="rgb(204, 204, 204)" stroke-width="1px"></line></g><g transform="translate(41.5625, 0)"><text x="0" y="177" dx="0em" dy="0.3em" style="text-anchor: end; visibility: hidden; font-family: Roboto, sans-serif; font-size: 12px; font-weight: 200;" fill="rgb(255, 255, 255)" stroke="none" stroke-width="1px">0.72</text><text x="0" y="165.2" dx="0em" dy="0.3em" style="text-anchor: end; visibility: inherit; font-family: Roboto, sans-serif; font-size: 12px; font-weight: 200;" fill="rgb(255, 255, 255)" stroke="none" stroke-width="1px">0.74</text><text x="0" y="153.39999999999998" dx="0em" dy="0.3em" style="text-anchor: end; visibility: hidden; font-family: Roboto, sans-serif; font-size: 12px; font-weight: 200;" fill="rgb(255, 255, 255)" stroke="none" stroke-width="1px">0.76</text><text x="0" y="141.59999999999997" dx="0em" dy="0.3em" style="text-anchor: end; visibility: inherit; font-family: Roboto, sans-serif; font-size: 12px; font-weight: 200;" fill="rgb(255, 255, 255)" stroke="none" stroke-width="1px">0.78</text><text x="0" y="129.79999999999998" dx="0em" dy="0.3em" style="text-anchor: end; visibility: hidden; font-family: Roboto, sans-serif; font-size: 12px; font-weight: 200;" fill="rgb(255, 255, 255)" stroke="none" stroke-width="1px">0.8</text><text x="0" y="118.00000000000001" dx="0em" dy="0.3em" style="text-anchor: end; visibility: inherit; font-family: Roboto, sans-serif; font-size: 12px; font-weight: 200;" fill="rgb(255, 255, 255)" stroke="none" stroke-width="1px">0.82</text><text x="0" y="106.20000000000002" dx="0em" dy="0.3em" style="text-anchor: end; visibility: hidden; font-family: Roboto, sans-serif; font-size: 12px; font-weight: 200;" fill="rgb(255, 255, 255)" stroke="none" stroke-width="1px">0.84</text><text x="0" y="94.40000000000002" dx="0em" dy="0.3em" style="text-anchor: end; visibility: inherit; font-family: Roboto, sans-serif; font-size: 12px; font-weight: 200;" fill="rgb(255, 255, 255)" stroke="none" stroke-width="1px">0.86</text><text x="0" y="82.6" dx="0em" dy="0.3em" style="text-anchor: end; visibility: hidden; font-family: Roboto, sans-serif; font-size: 12px; font-weight: 200;" fill="rgb(255, 255, 255)" stroke="none" stroke-width="1px">0.88</text><text x="0" y="70.79999999999998" dx="0em" dy="0.3em" style="text-anchor: end; visibility: inherit; font-family: Roboto, sans-serif; font-size: 12px; font-weight: 200;" fill="rgb(255, 255, 255)" stroke="none" stroke-width="1px">0.9</text><text x="0" y="58.999999999999986" dx="0em" dy="0.3em" style="text-anchor: end; visibility: hidden; font-family: Roboto, sans-serif; font-size: 12px; font-weight: 200;" fill="rgb(255, 255, 255)" stroke="none" stroke-width="1px">0.92</text><text x="0" y="47.20000000000003" dx="0em" dy="0.3em" style="text-anchor: end; visibility: inherit; font-family: Roboto, sans-serif; font-size: 12px; font-weight: 200;" fill="rgb(255, 255, 255)" stroke="none" stroke-width="1px">0.94</text><text x="0" y="35.400000000000034" dx="0em" dy="0.3em" style="text-anchor: end; visibility: hidden; font-family: Roboto, sans-serif; font-size: 12px; font-weight: 200;" fill="rgb(255, 255, 255)" stroke="none" stroke-width="1px">0.96</text><text x="0" y="23.600000000000016" dx="0em" dy="0.3em" style="text-anchor: end; visibility: inherit; font-family: Roboto, sans-serif; font-size: 12px; font-weight: 200;" fill="rgb(255, 255, 255)" stroke="none" stroke-width="1px">0.98</text><text x="0" y="11.800000000000017" dx="0em" dy="0.3em" style="text-anchor: end; visibility: hidden; font-family: Roboto, sans-serif; font-size: 12px; font-weight: 200;" fill="rgb(255, 255, 255)" stroke="none" stroke-width="1px">1</text><text x="0" y="0" dx="0em" dy="0.3em" style="text-anchor: end; visibility: hidden; font-family: Roboto, sans-serif; font-size: 12px; font-weight: 200;" fill="rgb(255, 255, 255)" stroke="none" stroke-width="1px">1.02</text></g><line x1="51.5625" y1="0" x2="51.5625" y2="177" fill="rgb(0, 0, 0)" stroke="rgb(204, 204, 204)" stroke-width="1px"></line></g></g><g transform="translate(51, 0)" clip-path="url(#clip_0)"><clipPath id="clip_0"><rect width="278" height="177"></rect></clipPath><g><g><g><line x1="0" y1="0" x2="0" y2="177" fill="rgb(0, 0, 0)" stroke="rgb(189, 189, 189)" stroke-width="1px" opacity="0.25"></line><line x1="30.9375" y1="0" x2="30.9375" y2="177" fill="rgb(0, 0, 0)" stroke="rgb(189, 189, 189)" stroke-width="1px" opacity="0.25"></line><line x1="61.875" y1="0" x2="61.875" y2="177" fill="rgb(0, 0, 0)" stroke="rgb(189, 189, 189)" stroke-width="1px" opacity="0.25"></line><line x1="92.8125" y1="0" x2="92.8125" y2="177" fill="rgb(0, 0, 0)" stroke="rgb(189, 189, 189)" stroke-width="1px" opacity="0.25"></line><line x1="123.75" y1="0" x2="123.75" y2="177" fill="rgb(0, 0, 0)" stroke="rgb(189, 189, 189)" stroke-width="1px" opacity="0.25"></line><line x1="154.6875" y1="0" x2="154.6875" y2="177" fill="rgb(0, 0, 0)" stroke="rgb(189, 189, 189)" stroke-width="1px" opacity="0.25"></line><line x1="185.625" y1="0" x2="185.625" y2="177" fill="rgb(0, 0, 0)" stroke="rgb(189, 189, 189)" stroke-width="1px" opacity="0.25"></line><line x1="216.5625" y1="0" x2="216.5625" y2="177" fill="rgb(0, 0, 0)" stroke="rgb(189, 189, 189)" stroke-width="1px" opacity="0.25"></line><line x1="247.5" y1="0" x2="247.5" y2="177" fill="rgb(0, 0, 0)" stroke="rgb(189, 189, 189)" stroke-width="1px" opacity="0.25"></line><line x1="278.4375" y1="0" x2="278.4375" y2="177" fill="rgb(0, 0, 0)" stroke="rgb(189, 189, 189)" stroke-width="1px" opacity="0.25"></line></g><g><line x1="0" y1="177" x2="278.4375" y2="177" fill="rgb(0, 0, 0)" stroke="rgb(189, 189, 189)" stroke-width="1px" opacity="0.25"></line><line x1="0" y1="165.2" x2="278.4375" y2="165.2" fill="rgb(0, 0, 0)" stroke="rgb(189, 189, 189)" stroke-width="1px" opacity="0.25"></line><line x1="0" y1="153.39999999999998" x2="278.4375" y2="153.39999999999998" fill="rgb(0, 0, 0)" stroke="rgb(189, 189, 189)" stroke-width="1px" opacity="0.25"></line><line x1="0" y1="141.59999999999997" x2="278.4375" y2="141.59999999999997" fill="rgb(0, 0, 0)" stroke="rgb(189, 189, 189)" stroke-width="1px" opacity="0.25"></line><line x1="0" y1="129.79999999999998" x2="278.4375" y2="129.79999999999998" fill="rgb(0, 0, 0)" stroke="rgb(189, 189, 189)" stroke-width="1px" opacity="0.25"></line><line x1="0" y1="118.00000000000001" x2="278.4375" y2="118.00000000000001" fill="rgb(0, 0, 0)" stroke="rgb(189, 189, 189)" stroke-width="1px" opacity="0.25"></line><line x1="0" y1="106.20000000000002" x2="278.4375" y2="106.20000000000002" fill="rgb(0, 0, 0)" stroke="rgb(189, 189, 189)" stroke-width="1px" opacity="0.25"></line><line x1="0" y1="94.40000000000002" x2="278.4375" y2="94.40000000000002" fill="rgb(0, 0, 0)" stroke="rgb(189, 189, 189)" stroke-width="1px" opacity="0.25"></line><line x1="0" y1="82.6" x2="278.4375" y2="82.6" fill="rgb(0, 0, 0)" stroke="rgb(189, 189, 189)" stroke-width="1px" opacity="0.25"></line><line x1="0" y1="70.79999999999998" x2="278.4375" y2="70.79999999999998" fill="rgb(0, 0, 0)" stroke="rgb(189, 189, 189)" stroke-width="1px" opacity="0.25"></line><line x1="0" y1="58.999999999999986" x2="278.4375" y2="58.999999999999986" fill="rgb(0, 0, 0)" stroke="rgb(189, 189, 189)" stroke-width="1px" opacity="0.25"></line><line x1="0" y1="47.20000000000003" x2="278.4375" y2="47.20000000000003" fill="rgb(0, 0, 0)" stroke="rgb(189, 189, 189)" stroke-width="1px" opacity="0.25"></line><line x1="0" y1="35.400000000000034" x2="278.4375" y2="35.400000000000034" fill="rgb(0, 0, 0)" stroke="rgb(189, 189, 189)" stroke-width="1px" opacity="0.25"></line><line x1="0" y1="23.600000000000016" x2="278.4375" y2="23.600000000000016" fill="rgb(0, 0, 0)" stroke="rgb(189, 189, 189)" stroke-width="1px" opacity="0.25"></line><line x1="0" y1="11.800000000000017" x2="278.4375" y2="11.800000000000017" fill="rgb(0, 0, 0)" stroke="rgb(189, 189, 189)" stroke-width="1px" opacity="0.25"></line><line x1="0" y1="0" x2="278.4375" y2="0" fill="rgb(0, 0, 0)" stroke="rgb(189, 189, 189)" stroke-width="1px" opacity="0.25"></line></g></g></g><g><g><line x1="0" y1="601.8" x2="278.4375" y2="601.8" fill="rgb(0, 0, 0)" stroke="rgb(153, 153, 153)" stroke-width="1.5px"></line></g></g><g><g><line x1="30.9375" y1="0" x2="30.9375" y2="177" fill="rgb(0, 0, 0)" stroke="rgb(153, 153, 153)" stroke-width="1.5px"></line></g></g><g><g><g><g><g><path stroke="rgb(0, 153, 136)" stroke-width="2px" d="M43.3125,197.92289420727806L46.40625,159.6005218327397L49.5,139.37024771133824L52.59375,119.3434771040478L55.6875,114.25606404687282L58.78125,116.22983197632315L61.875,104.65340305581965L64.96875,96.12298360821754L68.0625,102.59600000025469L71.15625,122.7786564295982L74.25,133.33591334811882L77.34375,105.60552584221037L80.43749999999999,101.63888845944655L83.53125,119.17386392701663L86.625,124.19838847322558L89.71875,119.80137232205813L92.8125,119.1581918674352L95.90625,89.48951898965512L99,68.85944891211066L102.09374999999999,63.735642255377314L105.1875,63.079417611935185L108.28125,59.16139388372855L111.375,59.17421330029729L114.46875,56.81827653341122L117.5625,47.32243893796701L120.65625,43.80721821233506L123.75,39.515806874893215L126.84375,33.96073368282649L129.9375,35.155450295585055L133.03125,33.5570145048755L136.125,45.359133441563365L139.21875,41.522974398691815L142.3125,37.746287429181656L145.40625,32.39727745206669L148.5,32.27086928429756L151.59375,31.04645050685377L154.6875,31.82911749140077L157.78125,29.62074226425499L160.87499999999997,33.55494535968901L163.96875,29.108705473404907L167.0625,30.66647047086571L170.15625,28.923154052887966L173.25,29.080148058417105L176.34375,29.905798595734662L179.4375,31.144726344118283L182.53125,28.82323123224875L185.625,32.707694366046574L188.71875,28.21346446659977L191.8125,27.179328679958047L194.90625,26.443992633770634L198,25.74890120694041L201.09375,24.59434353750304L204.18749999999997,23.732344380863452L207.28125,25.965662255196804L210.375,23.781368855422055L213.46875000000003,26.36382131325334L216.5625,23.633373878879045L219.65625,25.906279954005978L222.75,24.519506230765337L225.84375,26.43795936513764L228.9375,22.517199542575014L232.03125,23.024066912205726L235.125,21.62952123825057L238.21875,23.597707116271874L241.3125,21.199938604632585L244.40625,21.864965976118725L247.5,20.934060676598367" style="fill: none;" fill="none"></path></g><g><path stroke="rgb(238, 51, 119)" stroke-width="2px" d="M37.125,178.02722370283942L40.21874999999999,157.89752013841098L43.3125,143.40432444480794L46.40625,127.03908870776857L49.5,114.29031695711059L52.59375,103.4582952454374L55.6875,95.42374035491886L58.78125,86.99829595924136L61.875,80.47298572197059L64.96875,74.41133332502109L68.0625,71.41413375636196L71.15625,68.6895713390251L74.25,63.6332193731988L77.34375,63.549902492633066L80.43749999999999,62.33665386726295L83.53125,60.71621361086605L86.625,58.48084476548102L89.71875,60.33677963311563L92.8125,58.103236214759775L95.90625,52.85686704857255L99,49.89643148256274L102.09374999999999,46.18635688710571L105.1875,42.68304967091731L108.28125,40.59392869784562L111.375,40.67925757268797L114.46875,40.26380597648984L117.5625,36.91105513001569L120.65625,35.048160757602645L123.75,33.05014450153249L126.84375,31.690327500365342L129.9375,30.94882206181094L133.03125,29.26303925011197L136.125,29.269309145878047L139.21875,28.231783888766895L142.3125,28.075326521638182L145.40625,26.771631826950017L148.5,24.948127827153872L151.59375,23.37637669419127L154.6875,23.729121934308623L157.78125,23.420132519414718L160.87499999999997,22.385827823346638L163.96875,22.31664542904238L167.0625,21.01070880727751L170.15625,21.087676972374908L173.25,20.64522304665914L176.34375,20.454121313876716L179.4375,20.23747672699811L182.53125,19.242571027645816L185.625,19.53815947983971L188.71875,19.761651314582977L191.8125,20.51899952250045L194.90625,19.485855327589253L198,18.329014884556397L201.09375,17.94873861022277L204.18749999999997,17.199922220393834L207.28125,17.178710084250444L210.375,16.88666041677642L213.46875000000003,16.71143061629211L216.5625,16.9593527430968L219.65625,16.903801324050256L222.75,17.1679810965542L225.84375,17.380786407261105L228.9375,17.379801523845774L232.03125,17.230455281830587L235.125,16.828271481094866L238.21875,16.30451600831636L241.3125,16.28777334858112L244.40625,16.63142076116279L247.5,16.85579744685571" style="fill: none;" fill="none"></path></g></g></g></g><g opacity="0.2"><g><g><g><path stroke="rgb(0, 153, 136)" stroke-width="2px" d="M37.125,228.44062499999998L40.21874999999999,151.07868425846098L43.3125,183.26873593330382L46.40625,106.58688478469848L49.5,110.44063203334807L52.59375,90.14425330162048L55.6875,106.75311796665191L58.78125,119.16064732074736L61.875,87.39375703334808L64.96875,83.37377660274505L68.0625,112.28438906669616L71.15625,153.01310114860536L74.25,149.15938906669618L77.34375,64.02950220108032L80.43749999999999,95.69061093330383L83.53125,145.47187499999998L86.625,131.73440985679625L89.71875,113.20625L92.8125,118.19345645904541L95.90625,44.987485933303844L99,37.91475110054017L102.09374999999999,56.04999296665192L105.1875,62.095085310935985L108.28125,53.284375L111.375,59.19344239234924L114.46875,53.284375L117.5625,33.078691291809086L120.65625,38.534389066696164L123.75,33.078691291809086L126.84375,25.628124999999997L129.9375,36.94752507209779L133.03125,31.159360933303844L136.125,63.06231133937837L139.21875,35.76873593330384L142.3125,32.08125703334808L145.40625,24.373762536048893L148.5,32.08125703334808L151.59375,29.20982234477998L154.6875,33.003117966651914L157.78125,26.308179426193234L160.87499999999997,39.45625L163.96875,22.439345645904552L167.0625,33.003117966651914L170.15625,26.308179426193234L173.25,29.31563906669618L176.34375,31.144274401664745L179.4375,33.003117966651914L182.53125,25.340988564491276L185.625,38.534389066696164L188.71875,21.47211961746217L191.8125,25.628124999999997L194.90625,25.340988564491276L198,24.706264066696164L201.09375,22.862507033348095L204.18749999999997,22.439345645904552L207.28125,29.31563906669618L210.375,20.50492875576021L213.46875000000003,30.23750000000001L216.5625,19.53770272731783L219.65625,29.31563906669618L222.75,22.439345645904552L225.84375,29.31563906669618L228.9375,16.636059808731083L232.03125,23.784367966651928L235.125,19.53770272731783L238.21875,26.54998593330383L241.3125,17.603285837173466L244.40625,22.862507033348095L247.5,19.53770272731783" style="fill: none;" fill="none"></path></g><g><path stroke="rgb(238, 51, 119)" stroke-width="2px" d="M34.03125,195.14067583084105L37.125,148.28282289505003L40.21874999999999,134.22498874664308L43.3125,124.48200814723968L46.40625,104.40007619857788L49.5,96.05936937332152L52.59375,87.66510360240936L55.6875,83.57433252334594L58.78125,74.48749296665191L61.875,70.74420444965362L64.96875,65.35184197425842L68.0625,66.92812077999115L71.15625,64.60806541442871L74.25,56.05463497638703L77.34375,63.42498593330384L80.43749999999999,60.5172943353653L83.53125,58.285964655876164L86.625,55.12813203334809L89.71875,63.12051229476929L92.8125,54.753043580055234L95.90625,44.987485933303844L99,45.455836582183835L102.09374999999999,40.62128894329071L105.1875,37.428113746643064L108.28125,37.460256147384655L111.375,40.80725066661836L114.46875,39.64062922000886L117.5625,31.881931948661816L120.65625,32.25382022857667L123.75,30.053120779991147L126.84375,29.65060226917268L129.9375,29.83656399250031L133.03125,26.734365153312694L136.125,29.278713989257824L139.21875,26.675496029853832L142.3125,27.840640473365795L145.40625,24.816089797019956L148.5,22.212871837615964L151.59375,21.018750000000004L154.6875,24.25823979377747L157.78125,22.956648397445676L160.87499999999997,20.83437077999116L163.96875,22.212871837615964L167.0625,19.051803874969487L170.15625,21.20312922000887L173.25,19.98154215812685L176.34375,20.167468714714055L179.4375,19.91250984668733L182.53125,17.750212478637714L185.625,19.98154215812685L188.71875,20.09688906669617L191.8125,21.65502183437348L194.90625,17.93613903522492L198,16.593754220008854L201.09375,17.378324198722858L204.18749999999997,16.07669763565064L207.28125,17.146891880035405L210.375,16.448585915565495L213.46875000000003,16.448585915565495L216.5625,17.331235933303844L219.65625,16.82047419548035L222.75,17.564250755310063L225.84375,17.69999437332155L228.9375,17.378324198722858L232.03125,17.006435918808002L235.125,16.22499577999117L238.21875,15.518882799148576L241.3125,16.26265935897829L244.40625,17.146891880035405L247.5,17.192362475395207" style="fill: none;" fill="none"></path></g></g></g></g></g></g><g transform="translate(51, 177)" clip-path="url(#clip_1)"><clipPath id="clip_1"><rect width="278" height="23"></rect></clipPath><g><g><line x1="0" y1="0" x2="0" y2="5" style="visibility: inherit;" fill="rgb(0, 0, 0)" stroke="rgb(204, 204, 204)" stroke-width="1px"></line><line x1="30.9375" y1="0" x2="30.9375" y2="5" style="visibility: inherit;" fill="rgb(0, 0, 0)" stroke="rgb(204, 204, 204)" stroke-width="1px"></line><line x1="61.875" y1="0" x2="61.875" y2="5" style="visibility: inherit;" fill="rgb(0, 0, 0)" stroke="rgb(204, 204, 204)" stroke-width="1px"></line><line x1="92.8125" y1="0" x2="92.8125" y2="5" style="visibility: inherit;" fill="rgb(0, 0, 0)" stroke="rgb(204, 204, 204)" stroke-width="1px"></line><line x1="123.75" y1="0" x2="123.75" y2="5" style="visibility: inherit;" fill="rgb(0, 0, 0)" stroke="rgb(204, 204, 204)" stroke-width="1px"></line><line x1="154.6875" y1="0" x2="154.6875" y2="5" style="visibility: inherit;" fill="rgb(0, 0, 0)" stroke="rgb(204, 204, 204)" stroke-width="1px"></line><line x1="185.625" y1="0" x2="185.625" y2="5" style="visibility: inherit;" fill="rgb(0, 0, 0)" stroke="rgb(204, 204, 204)" stroke-width="1px"></line><line x1="216.5625" y1="0" x2="216.5625" y2="5" style="visibility: inherit;" fill="rgb(0, 0, 0)" stroke="rgb(204, 204, 204)" stroke-width="1px"></line><line x1="247.5" y1="0" x2="247.5" y2="5" style="visibility: inherit;" fill="rgb(0, 0, 0)" stroke="rgb(204, 204, 204)" stroke-width="1px"></line><line x1="278.4375" y1="0" x2="278.4375" y2="5" style="visibility: inherit;" fill="rgb(0, 0, 0)" stroke="rgb(204, 204, 204)" stroke-width="1px"></line></g><g transform="translate(0, 8)"><text x="0" y="0" dx="0em" dy="0.95em" style="text-anchor: middle; visibility: hidden; font-family: Roboto, sans-serif; font-size: 12px; font-weight: 200;" fill="rgb(255, 255, 255)" stroke="none" stroke-width="1px">-10</text><text x="30.9375" y="0" dx="0em" dy="0.95em" style="text-anchor: middle; visibility: inherit; font-family: Roboto, sans-serif; font-size: 12px; font-weight: 200;" fill="rgb(255, 255, 255)" stroke="none" stroke-width="1px">0</text><text x="61.875" y="0" dx="0em" dy="0.95em" style="text-anchor: middle; visibility: inherit; font-family: Roboto, sans-serif; font-size: 12px; font-weight: 200;" fill="rgb(255, 255, 255)" stroke="none" stroke-width="1px">10</text><text x="92.8125" y="0" dx="0em" dy="0.95em" style="text-anchor: middle; visibility: inherit; font-family: Roboto, sans-serif; font-size: 12px; font-weight: 200;" fill="rgb(255, 255, 255)" stroke="none" stroke-width="1px">20</text><text x="123.75" y="0" dx="0em" dy="0.95em" style="text-anchor: middle; visibility: inherit; font-family: Roboto, sans-serif; font-size: 12px; font-weight: 200;" fill="rgb(255, 255, 255)" stroke="none" stroke-width="1px">30</text><text x="154.6875" y="0" dx="0em" dy="0.95em" style="text-anchor: middle; visibility: inherit; font-family: Roboto, sans-serif; font-size: 12px; font-weight: 200;" fill="rgb(255, 255, 255)" stroke="none" stroke-width="1px">40</text><text x="185.625" y="0" dx="0em" dy="0.95em" style="text-anchor: middle; visibility: inherit; font-family: Roboto, sans-serif; font-size: 12px; font-weight: 200;" fill="rgb(255, 255, 255)" stroke="none" stroke-width="1px">50</text><text x="216.5625" y="0" dx="0em" dy="0.95em" style="text-anchor: middle; visibility: inherit; font-family: Roboto, sans-serif; font-size: 12px; font-weight: 200;" fill="rgb(255, 255, 255)" stroke="none" stroke-width="1px">60</text><text x="247.5" y="0" dx="0em" dy="0.95em" style="text-anchor: middle; visibility: inherit; font-family: Roboto, sans-serif; font-size: 12px; font-weight: 200;" fill="rgb(255, 255, 255)" stroke="none" stroke-width="1px">70</text><text x="278.4375" y="0" dx="0em" dy="0.95em" style="text-anchor: middle; visibility: hidden; font-family: Roboto, sans-serif; font-size: 12px; font-weight: 200;" fill="rgb(255, 255, 255)" stroke="none" stroke-width="1px">80</text></g><line x1="0" y1="0" x2="278.4375" y2="0" fill="rgb(0, 0, 0)" stroke="rgb(204, 204, 204)" stroke-width="1px"></line></g></g></g></g></svg>